<svg width="32" height="32" viewBox="0 0 32 32" fill="none" xmlns="http://www.w3.org/2000/svg">
<path d="M16 0C7.16429 0 0 7.35 0 16.4071C0 23.6571 4.58571 29.8 10.9429 31.9714C11.032 31.9908 11.123 32.0004 11.2143 32C11.8071 32 12.0357 31.5643 12.0357 31.1857C12.0357 30.9713 12.0315 30.5677 12.0264 30.0223C12.0188 29.1883 11.234 28.5794 10.4 28.5857C8.39356 28.5857 7.39746 27.5693 6.94702 26.8613C6.68019 26.442 6.54468 25.9536 6.31799 25.5112C6.17706 25.2362 6.03167 25.0016 5.88964 24.8024C5.32321 24.0082 3.65112 23.009 4.60792 22.8189C4.76167 22.7883 4.91052 22.7857 4.94286 22.7857H4.95C6.22287 22.8988 7.01632 23.8991 7.29132 24.3104C7.3681 24.4252 7.43328 24.5469 7.50663 24.6639C8.29362 25.9194 9.31334 26.2786 10.2286 26.2786C10.6984 26.2692 11.1629 26.1863 11.6053 26.0337C11.893 25.9345 12.0953 25.5557 12.1721 25.2613C12.3667 24.5154 11.8738 23.5003 11.1278 23.3061C8.27921 22.5644 5.78571 20.6854 5.78571 15.55C5.78571 14.6879 5.92941 13.9017 6.19219 13.1907C6.70219 11.8108 7.01044 10.2555 7.12525 8.78883C7.1638 8.29639 7.26445 7.74445 7.46366 7.14655C7.53491 6.93271 7.71759 6.76342 7.94286 6.77143C8.04886 6.77143 8.17932 6.77886 8.33498 6.80023C10.8805 7.14964 13.4234 7.94284 15.9929 7.94284C18.5623 7.94284 21.1052 7.14964 23.6507 6.80023C23.8064 6.77886 23.9369 6.77143 24.0429 6.77143C24.2681 6.76342 24.4508 6.93271 24.5221 7.14655C24.7218 7.746 24.8224 8.29925 24.8608 8.79266C24.9746 10.2578 25.2794 11.8107 25.7907 13.1884C26.0553 13.9013 26.2 14.6882 26.2 15.55C26.2 19.9179 24.4008 21.9236 22.1094 22.8786C20.9274 23.3713 19.9786 25.398 19.9786 26.6786C19.9786 28.8714 19.9571 30.6428 19.9571 31.1786C19.9571 31.5643 20.1786 32 20.7714 32C20.8674 32.0004 20.9632 31.9908 21.0571 31.9714C27.4214 29.8 32 23.65 32 16.4071C32 7.35 24.8357 0 16 0Z" fill="white"/>
</svg>
