<svg width="32" height="32" viewBox="0 0 32 32" fill="none" xmlns="http://www.w3.org/2000/svg">
<path d="M29.4407 0H2.73428C1.275 0 0 1.05 0 2.49214V29.2579C0 30.7079 1.275 32 2.73428 32H29.4328C30.9 32 32 30.6993 32 29.2579V2.49214C32.0085 1.05 30.9 0 29.4407 0ZM9.91927 24.3814C9.91927 25.6473 8.89304 26.6736 7.62713 26.6736C6.36122 26.6736 5.33499 25.6473 5.33499 24.3814V14.7121C5.33499 13.4462 6.36122 12.42 7.62713 12.42C8.89304 12.42 9.91927 13.4462 9.91927 14.7121V24.3814ZM7.7857 10.2529H7.75284C6.2857 10.2529 5.33571 9.16072 5.33571 7.79357C5.33571 6.40143 6.31071 5.335 7.8107 5.335C9.3107 5.335 10.2286 6.39357 10.2614 7.79357C10.2607 9.16072 9.3107 10.2529 7.7857 10.2529ZM26.6737 24.3815C26.6736 25.6474 25.6474 26.6736 24.3815 26.6736C23.1155 26.6736 22.0893 25.6473 22.0893 24.3813V18.88C22.0893 17.0129 21.4221 15.7371 19.7635 15.7371C18.4964 15.7371 17.7464 16.5943 17.4128 17.4293C17.2878 17.7293 17.2543 18.1379 17.2543 18.555V24.3814C17.2543 25.6473 16.228 26.6736 14.9621 26.6736C13.6962 26.6736 12.67 25.6473 12.67 24.3814V14.7121C12.67 13.4462 13.6962 12.42 14.9621 12.42H16.7779C17.041 12.42 17.2543 12.6333 17.2543 12.8964C17.2543 13.3617 17.8781 13.5662 18.2194 13.2499C18.9006 12.6187 19.8754 12.0864 21.3885 12.0864C24.3978 12.0864 26.6742 14.07 26.6742 18.3464L26.6737 24.3815Z" fill="white"/>
</svg>
