<svg width="32" height="32" viewBox="0 0 32 32" fill="none" xmlns="http://www.w3.org/2000/svg">
<path fill-rule="evenodd" clip-rule="evenodd" d="M27.3378 4.65006C25.8586 3.17011 24.1012 1.99736 22.1669 1.19932C20.2326 0.40128 18.1596 -0.00629029 16.0671 7.33853e-05C7.2857 7.33853e-05 0.137143 7.11291 0.133571 15.8572C0.130461 18.0864 0.600314 20.2845 1.50478 22.3084C1.93809 23.278 2.10197 24.3625 1.82017 25.3864C1.01136 28.3252 3.68779 31.0373 6.63702 30.2674L6.87938 30.2041C7.88628 29.9412 8.94662 30.0925 9.9071 30.493C11.8518 31.304 13.943 31.7243 16.0607 31.7236H16.0671C24.8478 31.7236 31.9957 24.61 32 15.8665C32.0053 13.7812 31.5958 11.7156 30.7954 9.79C29.9951 7.8644 28.8197 6.1172 27.3378 4.65006ZM16.0671 29.0471H16.0614C13.691 29.0478 11.3636 28.4135 9.32141 27.21C9.01191 27.0271 8.64222 26.9754 8.29439 27.0662L7.71611 27.2172C5.98726 27.6685 4.41823 26.0789 4.89213 24.3561L5.00683 23.9391C5.10668 23.5761 5.04924 23.1878 4.84856 22.8693C3.52313 20.7709 2.82089 18.3392 2.82357 15.8572C2.82357 8.59077 8.76713 2.67864 16.0721 2.67864C19.5764 2.67238 22.9397 4.0583 25.4222 6.53157C27.9047 9.00484 29.3031 12.3629 29.31 15.8672C29.3071 23.1343 23.3664 29.0471 16.0671 29.0471ZM23.3307 19.1765C22.9328 18.9779 20.9735 18.0193 20.6107 17.8872C20.2478 17.755 19.98 17.6886 19.715 18.0857C19.45 18.4829 18.6864 19.3715 18.4543 19.6393C18.2221 19.9072 17.99 19.9365 17.5921 19.7379C17.1943 19.5393 15.9107 19.1215 14.39 17.7715C13.2064 16.7207 12.4078 15.4236 12.1757 15.0272C11.9436 14.6308 12.1507 14.4158 12.35 14.2186C12.5293 14.0408 12.7478 13.7558 12.9471 13.5243C13.1464 13.2929 13.2128 13.1272 13.345 12.8629C13.4771 12.5986 13.4114 12.3672 13.3121 12.1693C13.2128 11.9715 12.4164 10.0208 12.085 9.22719C11.7614 8.45434 11.4336 8.55934 11.1893 8.5472C10.9571 8.53577 10.6893 8.53291 10.4257 8.53291C10.2242 8.53816 10.026 8.58488 9.84333 8.67017C9.66071 8.75546 9.49763 8.87749 9.36427 9.02862C8.99927 9.42577 7.9707 10.3858 7.9707 12.3343C7.9707 14.2829 9.39927 16.1686 9.59641 16.4329C9.79356 16.6972 12.4036 20.6993 16.3971 22.4157C17.1387 22.7333 17.8964 23.0118 18.6671 23.25C19.6207 23.5514 20.4885 23.5093 21.1743 23.4072C21.9393 23.2936 23.5314 22.4486 23.8621 21.5229C24.1928 20.5972 24.1935 19.8043 24.0942 19.6393C23.995 19.4743 23.7292 19.3743 23.3307 19.1765Z" fill="white"/>
</svg>
